<mxfile host="app.diagrams.net" modified="2023-05-09T09:01:26.372Z" agent="Mozilla/5.0 (Windows NT 10.0; Win64; x64) AppleWebKit/537.36 (KHTML, like Gecko) Chrome/113.0.0.0 Safari/537.36" etag="l5TYsZqiezhWfMBHn-kQ" version="21.1.8" type="device">
  <diagram name="Page-1" id="RB0eWU_C9URfKSRw9qTg">
    <mxGraphModel dx="1728" dy="960" grid="1" gridSize="10" guides="1" tooltips="1" connect="1" arrows="1" fold="1" page="1" pageScale="1" pageWidth="850" pageHeight="1100" math="0" shadow="0">
      <root>
        <mxCell id="0" />
        <mxCell id="1" parent="0" />
        <mxCell id="02IZ70COz3PG5wxfBX3Y-6" style="edgeStyle=orthogonalEdgeStyle;rounded=0;orthogonalLoop=1;jettySize=auto;html=1;" edge="1" parent="1" source="02IZ70COz3PG5wxfBX3Y-5" target="02IZ70COz3PG5wxfBX3Y-7">
          <mxGeometry relative="1" as="geometry">
            <mxPoint x="425" y="120" as="targetPoint" />
          </mxGeometry>
        </mxCell>
        <mxCell id="02IZ70COz3PG5wxfBX3Y-5" value="call(*args, **kwargs)" style="rounded=1;whiteSpace=wrap;html=1;fillColor=#dae8fc;strokeColor=#6c8ebf;" vertex="1" parent="1">
          <mxGeometry x="365" y="20" width="120" height="60" as="geometry" />
        </mxCell>
        <mxCell id="02IZ70COz3PG5wxfBX3Y-8" style="edgeStyle=orthogonalEdgeStyle;rounded=0;orthogonalLoop=1;jettySize=auto;html=1;" edge="1" parent="1" source="02IZ70COz3PG5wxfBX3Y-7" target="02IZ70COz3PG5wxfBX3Y-9">
          <mxGeometry relative="1" as="geometry">
            <mxPoint x="425" y="200" as="targetPoint" />
          </mxGeometry>
        </mxCell>
        <mxCell id="02IZ70COz3PG5wxfBX3Y-7" value="bind signature" style="rounded=1;whiteSpace=wrap;html=1;fillColor=#dae8fc;strokeColor=#6c8ebf;" vertex="1" parent="1">
          <mxGeometry x="365" y="110" width="120" height="60" as="geometry" />
        </mxCell>
        <mxCell id="02IZ70COz3PG5wxfBX3Y-10" style="edgeStyle=orthogonalEdgeStyle;rounded=0;orthogonalLoop=1;jettySize=auto;html=1;" edge="1" parent="1" source="02IZ70COz3PG5wxfBX3Y-9" target="02IZ70COz3PG5wxfBX3Y-11">
          <mxGeometry relative="1" as="geometry">
            <mxPoint x="425" y="290" as="targetPoint" />
          </mxGeometry>
        </mxCell>
        <mxCell id="02IZ70COz3PG5wxfBX3Y-9" value="extract dispatched args" style="rounded=1;whiteSpace=wrap;html=1;fillColor=#f8cecc;strokeColor=#b85450;" vertex="1" parent="1">
          <mxGeometry x="365" y="200" width="120" height="60" as="geometry" />
        </mxCell>
        <mxCell id="02IZ70COz3PG5wxfBX3Y-12" style="edgeStyle=orthogonalEdgeStyle;rounded=0;orthogonalLoop=1;jettySize=auto;html=1;" edge="1" parent="1" source="02IZ70COz3PG5wxfBX3Y-11" target="02IZ70COz3PG5wxfBX3Y-13">
          <mxGeometry relative="1" as="geometry">
            <mxPoint x="510" y="320" as="targetPoint" />
          </mxGeometry>
        </mxCell>
        <mxCell id="02IZ70COz3PG5wxfBX3Y-34" value="pre-normalized" style="edgeLabel;html=1;align=center;verticalAlign=middle;resizable=0;points=[];" vertex="1" connectable="0" parent="02IZ70COz3PG5wxfBX3Y-12">
          <mxGeometry x="-0.2632" y="-1" relative="1" as="geometry">
            <mxPoint x="10" y="-1" as="offset" />
          </mxGeometry>
        </mxCell>
        <mxCell id="02IZ70COz3PG5wxfBX3Y-22" style="edgeStyle=orthogonalEdgeStyle;rounded=0;orthogonalLoop=1;jettySize=auto;html=1;" edge="1" parent="1" source="02IZ70COz3PG5wxfBX3Y-11" target="02IZ70COz3PG5wxfBX3Y-23">
          <mxGeometry relative="1" as="geometry">
            <mxPoint x="425" y="380" as="targetPoint" />
          </mxGeometry>
        </mxCell>
        <mxCell id="02IZ70COz3PG5wxfBX3Y-11" value="extract vectors" style="rounded=1;whiteSpace=wrap;html=1;fillColor=#f8cecc;strokeColor=#b85450;" vertex="1" parent="1">
          <mxGeometry x="365" y="290" width="120" height="60" as="geometry" />
        </mxCell>
        <mxCell id="02IZ70COz3PG5wxfBX3Y-14" style="edgeStyle=orthogonalEdgeStyle;rounded=0;orthogonalLoop=1;jettySize=auto;html=1;" edge="1" parent="1" source="02IZ70COz3PG5wxfBX3Y-13" target="02IZ70COz3PG5wxfBX3Y-15">
          <mxGeometry relative="1" as="geometry">
            <mxPoint x="570" y="380" as="targetPoint" />
          </mxGeometry>
        </mxCell>
        <mxCell id="02IZ70COz3PG5wxfBX3Y-13" value="detect_type() on each dispatched arg" style="rounded=1;whiteSpace=wrap;html=1;fillColor=#e1d5e7;strokeColor=#9673a6;" vertex="1" parent="1">
          <mxGeometry x="600" y="290" width="120" height="60" as="geometry" />
        </mxCell>
        <mxCell id="02IZ70COz3PG5wxfBX3Y-16" style="edgeStyle=orthogonalEdgeStyle;rounded=0;orthogonalLoop=1;jettySize=auto;html=1;" edge="1" parent="1" source="02IZ70COz3PG5wxfBX3Y-15" target="02IZ70COz3PG5wxfBX3Y-17">
          <mxGeometry relative="1" as="geometry">
            <mxPoint x="570" y="460" as="targetPoint" />
          </mxGeometry>
        </mxCell>
        <mxCell id="02IZ70COz3PG5wxfBX3Y-15" value="generate key" style="rounded=1;whiteSpace=wrap;html=1;fillColor=#e1d5e7;strokeColor=#9673a6;" vertex="1" parent="1">
          <mxGeometry x="600" y="380" width="120" height="60" as="geometry" />
        </mxCell>
        <mxCell id="02IZ70COz3PG5wxfBX3Y-18" style="edgeStyle=orthogonalEdgeStyle;rounded=0;orthogonalLoop=1;jettySize=auto;html=1;" edge="1" parent="1" source="02IZ70COz3PG5wxfBX3Y-17" target="02IZ70COz3PG5wxfBX3Y-19">
          <mxGeometry relative="1" as="geometry">
            <mxPoint x="570" y="560" as="targetPoint" />
          </mxGeometry>
        </mxCell>
        <mxCell id="02IZ70COz3PG5wxfBX3Y-17" value="merge with **bound" style="rounded=1;whiteSpace=wrap;html=1;fillColor=#e1d5e7;strokeColor=#9673a6;" vertex="1" parent="1">
          <mxGeometry x="600" y="470" width="120" height="60" as="geometry" />
        </mxCell>
        <mxCell id="02IZ70COz3PG5wxfBX3Y-20" style="edgeStyle=orthogonalEdgeStyle;rounded=0;orthogonalLoop=1;jettySize=auto;html=1;" edge="1" parent="1" source="02IZ70COz3PG5wxfBX3Y-19" target="02IZ70COz3PG5wxfBX3Y-21">
          <mxGeometry relative="1" as="geometry">
            <mxPoint x="570" y="650" as="targetPoint" />
          </mxGeometry>
        </mxCell>
        <mxCell id="02IZ70COz3PG5wxfBX3Y-19" value="dispatched(*args, **kwargs)" style="rounded=1;whiteSpace=wrap;html=1;fillColor=#e1d5e7;strokeColor=#9673a6;" vertex="1" parent="1">
          <mxGeometry x="600" y="560" width="120" height="60" as="geometry" />
        </mxCell>
        <mxCell id="02IZ70COz3PG5wxfBX3Y-21" value="return" style="rounded=1;whiteSpace=wrap;html=1;fillColor=#f8cecc;strokeColor=#b85450;" vertex="1" parent="1">
          <mxGeometry x="600" y="650" width="120" height="60" as="geometry" />
        </mxCell>
        <mxCell id="02IZ70COz3PG5wxfBX3Y-24" style="edgeStyle=orthogonalEdgeStyle;rounded=0;orthogonalLoop=1;jettySize=auto;html=1;" edge="1" parent="1" source="02IZ70COz3PG5wxfBX3Y-23" target="02IZ70COz3PG5wxfBX3Y-25">
          <mxGeometry relative="1" as="geometry">
            <mxPoint x="425" y="470" as="targetPoint" />
          </mxGeometry>
        </mxCell>
        <mxCell id="02IZ70COz3PG5wxfBX3Y-23" value="bind to dataframe" style="rounded=1;whiteSpace=wrap;html=1;fillColor=#f8cecc;strokeColor=#b85450;" vertex="1" parent="1">
          <mxGeometry x="365" y="380" width="120" height="60" as="geometry" />
        </mxCell>
        <mxCell id="02IZ70COz3PG5wxfBX3Y-26" style="edgeStyle=orthogonalEdgeStyle;rounded=0;orthogonalLoop=1;jettySize=auto;html=1;" edge="1" parent="1" source="02IZ70COz3PG5wxfBX3Y-25" target="02IZ70COz3PG5wxfBX3Y-27">
          <mxGeometry relative="1" as="geometry">
            <mxPoint x="425" y="560" as="targetPoint" />
          </mxGeometry>
        </mxCell>
        <mxCell id="02IZ70COz3PG5wxfBX3Y-25" value="convert to RangeIndex" style="rounded=1;whiteSpace=wrap;html=1;fillColor=#f8cecc;strokeColor=#b85450;" vertex="1" parent="1">
          <mxGeometry x="365" y="470" width="120" height="60" as="geometry" />
        </mxCell>
        <mxCell id="02IZ70COz3PG5wxfBX3Y-28" style="edgeStyle=orthogonalEdgeStyle;rounded=0;orthogonalLoop=1;jettySize=auto;html=1;" edge="1" parent="1" source="02IZ70COz3PG5wxfBX3Y-27" target="02IZ70COz3PG5wxfBX3Y-29">
          <mxGeometry relative="1" as="geometry">
            <mxPoint x="425" y="660" as="targetPoint" />
          </mxGeometry>
        </mxCell>
        <mxCell id="02IZ70COz3PG5wxfBX3Y-27" value="drop missing values" style="rounded=1;whiteSpace=wrap;html=1;fillColor=#f8cecc;strokeColor=#b85450;" vertex="1" parent="1">
          <mxGeometry x="365" y="560" width="120" height="60" as="geometry" />
        </mxCell>
        <mxCell id="02IZ70COz3PG5wxfBX3Y-30" style="edgeStyle=orthogonalEdgeStyle;rounded=0;orthogonalLoop=1;jettySize=auto;html=1;" edge="1" parent="1" source="02IZ70COz3PG5wxfBX3Y-29" target="02IZ70COz3PG5wxfBX3Y-31">
          <mxGeometry relative="1" as="geometry">
            <mxPoint x="425" y="750" as="targetPoint" />
          </mxGeometry>
        </mxCell>
        <mxCell id="02IZ70COz3PG5wxfBX3Y-32" style="edgeStyle=orthogonalEdgeStyle;rounded=0;orthogonalLoop=1;jettySize=auto;html=1;entryX=1;entryY=0.5;entryDx=0;entryDy=0;" edge="1" parent="1" source="02IZ70COz3PG5wxfBX3Y-29" target="02IZ70COz3PG5wxfBX3Y-36">
          <mxGeometry relative="1" as="geometry">
            <mxPoint x="240" y="680" as="targetPoint" />
          </mxGeometry>
        </mxCell>
        <mxCell id="02IZ70COz3PG5wxfBX3Y-35" value="CompositeType" style="edgeLabel;html=1;align=center;verticalAlign=middle;resizable=0;points=[];" vertex="1" connectable="0" parent="02IZ70COz3PG5wxfBX3Y-32">
          <mxGeometry x="0.232" y="-2" relative="1" as="geometry">
            <mxPoint x="12" y="2" as="offset" />
          </mxGeometry>
        </mxCell>
        <mxCell id="02IZ70COz3PG5wxfBX3Y-29" value="detect_type() for each column" style="rounded=1;whiteSpace=wrap;html=1;fillColor=#f8cecc;strokeColor=#b85450;" vertex="1" parent="1">
          <mxGeometry x="365" y="650" width="120" height="60" as="geometry" />
        </mxCell>
        <mxCell id="02IZ70COz3PG5wxfBX3Y-37" style="edgeStyle=orthogonalEdgeStyle;rounded=0;orthogonalLoop=1;jettySize=auto;html=1;" edge="1" parent="1" source="02IZ70COz3PG5wxfBX3Y-31" target="02IZ70COz3PG5wxfBX3Y-38">
          <mxGeometry relative="1" as="geometry">
            <mxPoint x="425" y="830" as="targetPoint" />
          </mxGeometry>
        </mxCell>
        <mxCell id="02IZ70COz3PG5wxfBX3Y-31" value="split columns into SeriesWrappers" style="rounded=1;whiteSpace=wrap;html=1;fillColor=#d5e8d4;strokeColor=#82b366;" vertex="1" parent="1">
          <mxGeometry x="365" y="740" width="120" height="60" as="geometry" />
        </mxCell>
        <mxCell id="02IZ70COz3PG5wxfBX3Y-56" style="edgeStyle=orthogonalEdgeStyle;rounded=0;orthogonalLoop=1;jettySize=auto;html=1;" edge="1" parent="1" source="02IZ70COz3PG5wxfBX3Y-36" target="02IZ70COz3PG5wxfBX3Y-57">
          <mxGeometry relative="1" as="geometry">
            <mxPoint x="180" y="740" as="targetPoint" />
          </mxGeometry>
        </mxCell>
        <mxCell id="02IZ70COz3PG5wxfBX3Y-36" value="generate type frame" style="rounded=1;whiteSpace=wrap;html=1;fillColor=#fff2cc;strokeColor=#d6b656;" vertex="1" parent="1">
          <mxGeometry x="120" y="650" width="120" height="60" as="geometry" />
        </mxCell>
        <mxCell id="02IZ70COz3PG5wxfBX3Y-39" style="edgeStyle=orthogonalEdgeStyle;rounded=0;orthogonalLoop=1;jettySize=auto;html=1;" edge="1" parent="1" source="02IZ70COz3PG5wxfBX3Y-38" target="02IZ70COz3PG5wxfBX3Y-40">
          <mxGeometry relative="1" as="geometry">
            <mxPoint x="425" y="920" as="targetPoint" />
          </mxGeometry>
        </mxCell>
        <mxCell id="02IZ70COz3PG5wxfBX3Y-38" value="detect_type() on each dispatched arg" style="rounded=1;whiteSpace=wrap;html=1;fillColor=#e1d5e7;strokeColor=#9673a6;" vertex="1" parent="1">
          <mxGeometry x="365" y="830" width="120" height="60" as="geometry" />
        </mxCell>
        <mxCell id="02IZ70COz3PG5wxfBX3Y-41" style="edgeStyle=orthogonalEdgeStyle;rounded=0;orthogonalLoop=1;jettySize=auto;html=1;" edge="1" parent="1" source="02IZ70COz3PG5wxfBX3Y-40" target="02IZ70COz3PG5wxfBX3Y-42">
          <mxGeometry relative="1" as="geometry">
            <mxPoint x="425" y="1010" as="targetPoint" />
          </mxGeometry>
        </mxCell>
        <mxCell id="02IZ70COz3PG5wxfBX3Y-40" value="generate key" style="rounded=1;whiteSpace=wrap;html=1;fillColor=#e1d5e7;strokeColor=#9673a6;" vertex="1" parent="1">
          <mxGeometry x="365" y="920" width="120" height="60" as="geometry" />
        </mxCell>
        <mxCell id="02IZ70COz3PG5wxfBX3Y-43" style="edgeStyle=orthogonalEdgeStyle;rounded=0;orthogonalLoop=1;jettySize=auto;html=1;" edge="1" parent="1" source="02IZ70COz3PG5wxfBX3Y-42" target="02IZ70COz3PG5wxfBX3Y-44">
          <mxGeometry relative="1" as="geometry">
            <mxPoint x="425" y="1100" as="targetPoint" />
          </mxGeometry>
        </mxCell>
        <mxCell id="02IZ70COz3PG5wxfBX3Y-42" value="merge with **bound" style="rounded=1;whiteSpace=wrap;html=1;fillColor=#e1d5e7;strokeColor=#9673a6;" vertex="1" parent="1">
          <mxGeometry x="365" y="1010" width="120" height="60" as="geometry" />
        </mxCell>
        <mxCell id="02IZ70COz3PG5wxfBX3Y-45" style="edgeStyle=orthogonalEdgeStyle;rounded=0;orthogonalLoop=1;jettySize=auto;html=1;" edge="1" parent="1" source="02IZ70COz3PG5wxfBX3Y-44" target="02IZ70COz3PG5wxfBX3Y-46">
          <mxGeometry relative="1" as="geometry">
            <mxPoint x="425" y="1190" as="targetPoint" />
          </mxGeometry>
        </mxCell>
        <mxCell id="02IZ70COz3PG5wxfBX3Y-47" value="SeriesWrapper" style="edgeLabel;html=1;align=center;verticalAlign=middle;resizable=0;points=[];" vertex="1" connectable="0" parent="02IZ70COz3PG5wxfBX3Y-45">
          <mxGeometry x="-0.2571" relative="1" as="geometry">
            <mxPoint x="6" as="offset" />
          </mxGeometry>
        </mxCell>
        <mxCell id="02IZ70COz3PG5wxfBX3Y-54" style="edgeStyle=orthogonalEdgeStyle;rounded=0;orthogonalLoop=1;jettySize=auto;html=1;" edge="1" parent="1" source="02IZ70COz3PG5wxfBX3Y-44" target="02IZ70COz3PG5wxfBX3Y-55">
          <mxGeometry relative="1" as="geometry">
            <mxPoint x="425" y="1200" as="targetPoint" />
          </mxGeometry>
        </mxCell>
        <mxCell id="02IZ70COz3PG5wxfBX3Y-44" value="dispatched(*args, **kwargs)" style="rounded=1;whiteSpace=wrap;html=1;fillColor=#e1d5e7;strokeColor=#9673a6;" vertex="1" parent="1">
          <mxGeometry x="365" y="1100" width="120" height="60" as="geometry" />
        </mxCell>
        <mxCell id="02IZ70COz3PG5wxfBX3Y-49" style="rounded=0;orthogonalLoop=1;jettySize=auto;html=1;dashed=1;dashPattern=8 8;entryX=1;entryY=0.5;entryDx=0;entryDy=0;" edge="1" parent="1" source="02IZ70COz3PG5wxfBX3Y-46" target="02IZ70COz3PG5wxfBX3Y-31">
          <mxGeometry relative="1" as="geometry">
            <mxPoint x="650" y="900" as="targetPoint" />
            <Array as="points">
              <mxPoint x="650" y="1040" />
              <mxPoint x="540" y="1040" />
              <mxPoint x="540" y="770" />
            </Array>
          </mxGeometry>
        </mxCell>
        <mxCell id="02IZ70COz3PG5wxfBX3Y-50" style="edgeStyle=orthogonalEdgeStyle;rounded=0;orthogonalLoop=1;jettySize=auto;html=1;" edge="1" parent="1" source="02IZ70COz3PG5wxfBX3Y-46" target="02IZ70COz3PG5wxfBX3Y-51">
          <mxGeometry relative="1" as="geometry">
            <mxPoint x="650" y="1190" as="targetPoint" />
          </mxGeometry>
        </mxCell>
        <mxCell id="02IZ70COz3PG5wxfBX3Y-46" value="check index is subset of RangeIndex" style="rounded=1;whiteSpace=wrap;html=1;fillColor=#d5e8d4;strokeColor=#82b366;" vertex="1" parent="1">
          <mxGeometry x="590" y="1100" width="120" height="60" as="geometry" />
        </mxCell>
        <mxCell id="02IZ70COz3PG5wxfBX3Y-95" style="edgeStyle=orthogonalEdgeStyle;rounded=0;orthogonalLoop=1;jettySize=auto;html=1;" edge="1" parent="1" source="02IZ70COz3PG5wxfBX3Y-51" target="02IZ70COz3PG5wxfBX3Y-94">
          <mxGeometry relative="1" as="geometry" />
        </mxCell>
        <mxCell id="02IZ70COz3PG5wxfBX3Y-51" value="replace_na" style="rounded=1;whiteSpace=wrap;html=1;fillColor=#d5e8d4;strokeColor=#82b366;" vertex="1" parent="1">
          <mxGeometry x="590" y="1190" width="120" height="60" as="geometry" />
        </mxCell>
        <mxCell id="02IZ70COz3PG5wxfBX3Y-53" value="return" style="rounded=1;whiteSpace=wrap;html=1;fillColor=#a20025;fontColor=#ffffff;strokeColor=#6F0000;" vertex="1" parent="1">
          <mxGeometry x="590" y="1370" width="120" height="60" as="geometry" />
        </mxCell>
        <mxCell id="02IZ70COz3PG5wxfBX3Y-55" value="return" style="rounded=1;whiteSpace=wrap;html=1;fillColor=#a20025;strokeColor=#6F0000;fontColor=#ffffff;" vertex="1" parent="1">
          <mxGeometry x="365" y="1190" width="120" height="60" as="geometry" />
        </mxCell>
        <mxCell id="02IZ70COz3PG5wxfBX3Y-58" value="For each group:" style="edgeStyle=orthogonalEdgeStyle;rounded=0;orthogonalLoop=1;jettySize=auto;html=1;entryX=0.5;entryY=0;entryDx=0;entryDy=0;" edge="1" parent="1" source="02IZ70COz3PG5wxfBX3Y-57" target="02IZ70COz3PG5wxfBX3Y-61">
          <mxGeometry relative="1" as="geometry">
            <mxPoint x="180" y="830" as="targetPoint" />
          </mxGeometry>
        </mxCell>
        <mxCell id="02IZ70COz3PG5wxfBX3Y-57" value="split into groups (by index)" style="rounded=1;whiteSpace=wrap;html=1;fillColor=#fff2cc;strokeColor=#d6b656;" vertex="1" parent="1">
          <mxGeometry x="120" y="740" width="120" height="60" as="geometry" />
        </mxCell>
        <mxCell id="02IZ70COz3PG5wxfBX3Y-62" style="edgeStyle=orthogonalEdgeStyle;rounded=0;orthogonalLoop=1;jettySize=auto;html=1;" edge="1" parent="1" source="02IZ70COz3PG5wxfBX3Y-61" target="02IZ70COz3PG5wxfBX3Y-63">
          <mxGeometry relative="1" as="geometry">
            <mxPoint x="180" y="930" as="targetPoint" />
          </mxGeometry>
        </mxCell>
        <mxCell id="02IZ70COz3PG5wxfBX3Y-61" value="extract group from parent frame" style="rounded=0;whiteSpace=wrap;html=1;fillColor=#fff2cc;strokeColor=#d6b656;" vertex="1" parent="1">
          <mxGeometry x="120" y="830" width="120" height="60" as="geometry" />
        </mxCell>
        <mxCell id="02IZ70COz3PG5wxfBX3Y-63" value="split columns into SeriesWrappers" style="rounded=0;whiteSpace=wrap;html=1;fillColor=#d5e8d4;strokeColor=#82b366;" vertex="1" parent="1">
          <mxGeometry x="120" y="920" width="120" height="60" as="geometry" />
        </mxCell>
        <mxCell id="02IZ70COz3PG5wxfBX3Y-66" style="edgeStyle=orthogonalEdgeStyle;rounded=0;orthogonalLoop=1;jettySize=auto;html=1;exitX=0.5;exitY=1;exitDx=0;exitDy=0;" edge="1" parent="1" source="02IZ70COz3PG5wxfBX3Y-63" target="02IZ70COz3PG5wxfBX3Y-67">
          <mxGeometry relative="1" as="geometry">
            <mxPoint x="180" y="1100" as="targetPoint" />
            <mxPoint x="180" y="1070" as="sourcePoint" />
          </mxGeometry>
        </mxCell>
        <mxCell id="02IZ70COz3PG5wxfBX3Y-68" style="edgeStyle=orthogonalEdgeStyle;rounded=0;orthogonalLoop=1;jettySize=auto;html=1;" edge="1" parent="1" source="02IZ70COz3PG5wxfBX3Y-67" target="02IZ70COz3PG5wxfBX3Y-69">
          <mxGeometry relative="1" as="geometry">
            <mxPoint x="180" y="1190" as="targetPoint" />
          </mxGeometry>
        </mxCell>
        <mxCell id="02IZ70COz3PG5wxfBX3Y-67" value="detect_type() on each dispatched arg" style="rounded=0;whiteSpace=wrap;html=1;fillColor=#e1d5e7;strokeColor=#9673a6;" vertex="1" parent="1">
          <mxGeometry x="120" y="1010" width="120" height="60" as="geometry" />
        </mxCell>
        <mxCell id="02IZ70COz3PG5wxfBX3Y-70" style="edgeStyle=orthogonalEdgeStyle;rounded=0;orthogonalLoop=1;jettySize=auto;html=1;" edge="1" parent="1" source="02IZ70COz3PG5wxfBX3Y-69" target="02IZ70COz3PG5wxfBX3Y-71">
          <mxGeometry relative="1" as="geometry">
            <mxPoint x="180" y="1190" as="targetPoint" />
          </mxGeometry>
        </mxCell>
        <mxCell id="02IZ70COz3PG5wxfBX3Y-69" value="generate key" style="rounded=0;whiteSpace=wrap;html=1;fillColor=#e1d5e7;strokeColor=#9673a6;" vertex="1" parent="1">
          <mxGeometry x="120" y="1100" width="120" height="60" as="geometry" />
        </mxCell>
        <mxCell id="02IZ70COz3PG5wxfBX3Y-72" style="edgeStyle=orthogonalEdgeStyle;rounded=0;orthogonalLoop=1;jettySize=auto;html=1;" edge="1" parent="1" source="02IZ70COz3PG5wxfBX3Y-71" target="02IZ70COz3PG5wxfBX3Y-73">
          <mxGeometry relative="1" as="geometry">
            <mxPoint x="180" y="1280" as="targetPoint" />
          </mxGeometry>
        </mxCell>
        <mxCell id="02IZ70COz3PG5wxfBX3Y-71" value="merge with **bound" style="rounded=0;whiteSpace=wrap;html=1;fillColor=#e1d5e7;strokeColor=#9673a6;" vertex="1" parent="1">
          <mxGeometry x="120" y="1190" width="120" height="60" as="geometry" />
        </mxCell>
        <mxCell id="02IZ70COz3PG5wxfBX3Y-74" style="edgeStyle=orthogonalEdgeStyle;rounded=0;orthogonalLoop=1;jettySize=auto;html=1;" edge="1" parent="1" source="02IZ70COz3PG5wxfBX3Y-73" target="02IZ70COz3PG5wxfBX3Y-75">
          <mxGeometry relative="1" as="geometry">
            <mxPoint x="180" y="1380" as="targetPoint" />
          </mxGeometry>
        </mxCell>
        <mxCell id="02IZ70COz3PG5wxfBX3Y-76" value="SeriesWrapper" style="edgeLabel;html=1;align=center;verticalAlign=middle;resizable=0;points=[];" vertex="1" connectable="0" parent="02IZ70COz3PG5wxfBX3Y-74">
          <mxGeometry x="-0.264" y="1" relative="1" as="geometry">
            <mxPoint x="14" y="1" as="offset" />
          </mxGeometry>
        </mxCell>
        <mxCell id="02IZ70COz3PG5wxfBX3Y-79" value="" style="edgeStyle=orthogonalEdgeStyle;rounded=0;orthogonalLoop=1;jettySize=auto;html=1;" edge="1" parent="1" source="02IZ70COz3PG5wxfBX3Y-73" target="02IZ70COz3PG5wxfBX3Y-80">
          <mxGeometry relative="1" as="geometry">
            <mxPoint x="180" y="1370" as="targetPoint" />
          </mxGeometry>
        </mxCell>
        <mxCell id="02IZ70COz3PG5wxfBX3Y-73" value="dispatched(*args, **kwargs)" style="rounded=0;whiteSpace=wrap;html=1;fillColor=#e1d5e7;strokeColor=#9673a6;" vertex="1" parent="1">
          <mxGeometry x="120" y="1280" width="120" height="60" as="geometry" />
        </mxCell>
        <mxCell id="02IZ70COz3PG5wxfBX3Y-77" style="edgeStyle=orthogonalEdgeStyle;rounded=0;orthogonalLoop=1;jettySize=auto;html=1;" edge="1" parent="1" source="02IZ70COz3PG5wxfBX3Y-75" target="02IZ70COz3PG5wxfBX3Y-78">
          <mxGeometry relative="1" as="geometry">
            <mxPoint x="425" y="1380" as="targetPoint" />
          </mxGeometry>
        </mxCell>
        <mxCell id="02IZ70COz3PG5wxfBX3Y-86" style="rounded=0;orthogonalLoop=1;jettySize=auto;html=1;exitX=0.5;exitY=0;exitDx=0;exitDy=0;dashed=1;entryX=1;entryY=0.5;entryDx=0;entryDy=0;dashPattern=8 8;" edge="1" parent="1" source="02IZ70COz3PG5wxfBX3Y-75" target="02IZ70COz3PG5wxfBX3Y-63">
          <mxGeometry relative="1" as="geometry">
            <mxPoint x="280" y="860" as="targetPoint" />
            <Array as="points">
              <mxPoint x="425" y="1260" />
              <mxPoint x="300" y="1260" />
              <mxPoint x="300" y="950" />
            </Array>
          </mxGeometry>
        </mxCell>
        <mxCell id="02IZ70COz3PG5wxfBX3Y-75" value="check index is subset of group index" style="rounded=0;whiteSpace=wrap;html=1;fillColor=#d5e8d4;strokeColor=#82b366;" vertex="1" parent="1">
          <mxGeometry x="365" y="1280" width="120" height="60" as="geometry" />
        </mxCell>
        <mxCell id="02IZ70COz3PG5wxfBX3Y-88" style="edgeStyle=orthogonalEdgeStyle;rounded=0;orthogonalLoop=1;jettySize=auto;html=1;" edge="1" parent="1" source="02IZ70COz3PG5wxfBX3Y-78" target="02IZ70COz3PG5wxfBX3Y-89">
          <mxGeometry relative="1" as="geometry">
            <mxPoint x="425" y="1470" as="targetPoint" />
          </mxGeometry>
        </mxCell>
        <mxCell id="02IZ70COz3PG5wxfBX3Y-78" value="replace_na" style="rounded=0;whiteSpace=wrap;html=1;fillColor=#d5e8d4;strokeColor=#82b366;" vertex="1" parent="1">
          <mxGeometry x="365" y="1370" width="120" height="60" as="geometry" />
        </mxCell>
        <mxCell id="02IZ70COz3PG5wxfBX3Y-84" style="edgeStyle=orthogonalEdgeStyle;rounded=0;orthogonalLoop=1;jettySize=auto;html=1;entryX=0.5;entryY=0;entryDx=0;entryDy=0;" edge="1" parent="1" source="02IZ70COz3PG5wxfBX3Y-80" target="02IZ70COz3PG5wxfBX3Y-104">
          <mxGeometry relative="1" as="geometry">
            <mxPoint x="180" y="1460" as="targetPoint" />
          </mxGeometry>
        </mxCell>
        <mxCell id="02IZ70COz3PG5wxfBX3Y-80" value="bind key, result into dataframe row" style="rounded=0;whiteSpace=wrap;html=1;fillColor=#fff2cc;strokeColor=#d6b656;" vertex="1" parent="1">
          <mxGeometry x="120" y="1370" width="120" height="60" as="geometry" />
        </mxCell>
        <mxCell id="02IZ70COz3PG5wxfBX3Y-90" style="edgeStyle=orthogonalEdgeStyle;rounded=0;orthogonalLoop=1;jettySize=auto;html=1;" edge="1" parent="1" source="02IZ70COz3PG5wxfBX3Y-89" target="02IZ70COz3PG5wxfBX3Y-91">
          <mxGeometry relative="1" as="geometry">
            <mxPoint x="425" y="1550" as="targetPoint" />
          </mxGeometry>
        </mxCell>
        <mxCell id="02IZ70COz3PG5wxfBX3Y-89" value="store result" style="rounded=0;whiteSpace=wrap;html=1;fillColor=#fff2cc;strokeColor=#d6b656;" vertex="1" parent="1">
          <mxGeometry x="365" y="1460" width="120" height="60" as="geometry" />
        </mxCell>
        <mxCell id="02IZ70COz3PG5wxfBX3Y-92" style="edgeStyle=orthogonalEdgeStyle;rounded=0;orthogonalLoop=1;jettySize=auto;html=1;" edge="1" parent="1" source="02IZ70COz3PG5wxfBX3Y-91" target="02IZ70COz3PG5wxfBX3Y-93">
          <mxGeometry relative="1" as="geometry">
            <mxPoint x="425" y="1640" as="targetPoint" />
          </mxGeometry>
        </mxCell>
        <mxCell id="02IZ70COz3PG5wxfBX3Y-91" value="concatenate results" style="rounded=1;whiteSpace=wrap;html=1;fillColor=#fff2cc;strokeColor=#d6b656;" vertex="1" parent="1">
          <mxGeometry x="365" y="1550" width="120" height="60" as="geometry" />
        </mxCell>
        <mxCell id="02IZ70COz3PG5wxfBX3Y-99" style="edgeStyle=orthogonalEdgeStyle;rounded=0;orthogonalLoop=1;jettySize=auto;html=1;" edge="1" parent="1" source="02IZ70COz3PG5wxfBX3Y-93" target="02IZ70COz3PG5wxfBX3Y-100">
          <mxGeometry relative="1" as="geometry">
            <mxPoint x="425" y="1750" as="targetPoint" />
          </mxGeometry>
        </mxCell>
        <mxCell id="02IZ70COz3PG5wxfBX3Y-93" value="replace_na" style="rounded=1;whiteSpace=wrap;html=1;fillColor=#fff2cc;strokeColor=#d6b656;" vertex="1" parent="1">
          <mxGeometry x="365" y="1640" width="120" height="60" as="geometry" />
        </mxCell>
        <mxCell id="02IZ70COz3PG5wxfBX3Y-96" style="edgeStyle=orthogonalEdgeStyle;rounded=0;orthogonalLoop=1;jettySize=auto;html=1;" edge="1" parent="1" source="02IZ70COz3PG5wxfBX3Y-94" target="02IZ70COz3PG5wxfBX3Y-53">
          <mxGeometry relative="1" as="geometry" />
        </mxCell>
        <mxCell id="02IZ70COz3PG5wxfBX3Y-97" style="rounded=0;orthogonalLoop=1;jettySize=auto;html=1;dashed=1;dashPattern=8 8;endArrow=classic;endFill=1;entryX=1;entryY=0.5;entryDx=0;entryDy=0;" edge="1" parent="1" source="02IZ70COz3PG5wxfBX3Y-94" target="02IZ70COz3PG5wxfBX3Y-25">
          <mxGeometry relative="1" as="geometry">
            <mxPoint x="550" y="500" as="targetPoint" />
            <Array as="points">
              <mxPoint x="760" y="1310" />
              <mxPoint x="760" y="740" />
              <mxPoint x="540" y="740" />
              <mxPoint x="540" y="500" />
            </Array>
          </mxGeometry>
        </mxCell>
        <mxCell id="02IZ70COz3PG5wxfBX3Y-94" value="replace original index" style="rounded=1;whiteSpace=wrap;html=1;fillColor=#d5e8d4;strokeColor=#82b366;" vertex="1" parent="1">
          <mxGeometry x="590" y="1280" width="120" height="60" as="geometry" />
        </mxCell>
        <mxCell id="02IZ70COz3PG5wxfBX3Y-101" style="edgeStyle=orthogonalEdgeStyle;rounded=0;orthogonalLoop=1;jettySize=auto;html=1;endArrow=none;endFill=0;startArrow=none;startFill=0;dashed=1;dashPattern=8 8;" edge="1" parent="1" source="02IZ70COz3PG5wxfBX3Y-100">
          <mxGeometry relative="1" as="geometry">
            <mxPoint x="760" y="1310" as="targetPoint" />
          </mxGeometry>
        </mxCell>
        <mxCell id="02IZ70COz3PG5wxfBX3Y-102" style="edgeStyle=orthogonalEdgeStyle;rounded=0;orthogonalLoop=1;jettySize=auto;html=1;" edge="1" parent="1" source="02IZ70COz3PG5wxfBX3Y-100" target="02IZ70COz3PG5wxfBX3Y-103">
          <mxGeometry relative="1" as="geometry">
            <mxPoint x="425" y="1820" as="targetPoint" />
          </mxGeometry>
        </mxCell>
        <mxCell id="02IZ70COz3PG5wxfBX3Y-100" value="replace original index" style="rounded=1;whiteSpace=wrap;html=1;fillColor=#fff2cc;strokeColor=#d6b656;" vertex="1" parent="1">
          <mxGeometry x="365" y="1730" width="120" height="60" as="geometry" />
        </mxCell>
        <mxCell id="02IZ70COz3PG5wxfBX3Y-103" value="return" style="rounded=1;whiteSpace=wrap;html=1;fillColor=#dae8fc;strokeColor=#6c8ebf;" vertex="1" parent="1">
          <mxGeometry x="365" y="1820" width="120" height="60" as="geometry" />
        </mxCell>
        <mxCell id="02IZ70COz3PG5wxfBX3Y-105" style="edgeStyle=orthogonalEdgeStyle;rounded=0;orthogonalLoop=1;jettySize=auto;html=1;" edge="1" parent="1" source="02IZ70COz3PG5wxfBX3Y-104" target="02IZ70COz3PG5wxfBX3Y-106">
          <mxGeometry relative="1" as="geometry">
            <mxPoint x="180" y="1560" as="targetPoint" />
          </mxGeometry>
        </mxCell>
        <mxCell id="02IZ70COz3PG5wxfBX3Y-104" value="store result" style="rounded=0;whiteSpace=wrap;html=1;fillColor=#fff2cc;strokeColor=#d6b656;" vertex="1" parent="1">
          <mxGeometry x="120" y="1460" width="120" height="60" as="geometry" />
        </mxCell>
        <mxCell id="02IZ70COz3PG5wxfBX3Y-107" style="edgeStyle=orthogonalEdgeStyle;rounded=0;orthogonalLoop=1;jettySize=auto;html=1;" edge="1" parent="1" source="02IZ70COz3PG5wxfBX3Y-106" target="02IZ70COz3PG5wxfBX3Y-108">
          <mxGeometry relative="1" as="geometry">
            <mxPoint x="180" y="1640" as="targetPoint" />
          </mxGeometry>
        </mxCell>
        <mxCell id="02IZ70COz3PG5wxfBX3Y-106" value="concatenate results" style="rounded=1;whiteSpace=wrap;html=1;fillColor=#fff2cc;strokeColor=#d6b656;" vertex="1" parent="1">
          <mxGeometry x="120" y="1550" width="120" height="60" as="geometry" />
        </mxCell>
        <mxCell id="02IZ70COz3PG5wxfBX3Y-108" value="return" style="rounded=1;whiteSpace=wrap;html=1;fillColor=#dae8fc;strokeColor=#6c8ebf;" vertex="1" parent="1">
          <mxGeometry x="120" y="1640" width="120" height="60" as="geometry" />
        </mxCell>
        <mxCell id="02IZ70COz3PG5wxfBX3Y-109" value="return" style="rounded=1;whiteSpace=wrap;html=1;fillColor=#dae8fc;strokeColor=#6c8ebf;" vertex="1" parent="1">
          <mxGeometry x="365" y="1190" width="120" height="60" as="geometry" />
        </mxCell>
        <mxCell id="02IZ70COz3PG5wxfBX3Y-110" value="return" style="rounded=1;whiteSpace=wrap;html=1;fillColor=#dae8fc;strokeColor=#6c8ebf;" vertex="1" parent="1">
          <mxGeometry x="590" y="1370" width="120" height="60" as="geometry" />
        </mxCell>
        <mxCell id="02IZ70COz3PG5wxfBX3Y-111" value="return" style="rounded=1;whiteSpace=wrap;html=1;fillColor=#dae8fc;strokeColor=#6c8ebf;" vertex="1" parent="1">
          <mxGeometry x="600" y="650" width="120" height="60" as="geometry" />
        </mxCell>
        <mxCell id="02IZ70COz3PG5wxfBX3Y-112" value="extract dispatched args" style="rounded=1;whiteSpace=wrap;html=1;fillColor=#dae8fc;strokeColor=#6c8ebf;" vertex="1" parent="1">
          <mxGeometry x="365" y="200" width="120" height="60" as="geometry" />
        </mxCell>
        <mxCell id="02IZ70COz3PG5wxfBX3Y-113" value="" style="rounded=0;whiteSpace=wrap;html=1;fillColor=#dae8fc;strokeColor=#6c8ebf;" vertex="1" parent="1">
          <mxGeometry x="40" y="40" width="40" height="40" as="geometry" />
        </mxCell>
        <mxCell id="02IZ70COz3PG5wxfBX3Y-115" value="DispatchFunc.__call__()" style="text;html=1;strokeColor=none;fillColor=none;align=left;verticalAlign=middle;whiteSpace=wrap;rounded=0;" vertex="1" parent="1">
          <mxGeometry x="90" y="45" width="60" height="30" as="geometry" />
        </mxCell>
        <mxCell id="02IZ70COz3PG5wxfBX3Y-116" value="" style="rounded=0;whiteSpace=wrap;html=1;fillColor=#f8cecc;strokeColor=#b85450;" vertex="1" parent="1">
          <mxGeometry x="40" y="90" width="40" height="40" as="geometry" />
        </mxCell>
        <mxCell id="02IZ70COz3PG5wxfBX3Y-117" value="" style="rounded=0;whiteSpace=wrap;html=1;fillColor=#e1d5e7;strokeColor=#9673a6;" vertex="1" parent="1">
          <mxGeometry x="40" y="140" width="40" height="40" as="geometry" />
        </mxCell>
        <mxCell id="02IZ70COz3PG5wxfBX3Y-118" value="" style="rounded=0;whiteSpace=wrap;html=1;fillColor=#d5e8d4;strokeColor=#82b366;" vertex="1" parent="1">
          <mxGeometry x="40" y="190" width="40" height="40" as="geometry" />
        </mxCell>
        <mxCell id="02IZ70COz3PG5wxfBX3Y-119" value="" style="rounded=0;whiteSpace=wrap;html=1;fillColor=#fff2cc;strokeColor=#d6b656;" vertex="1" parent="1">
          <mxGeometry x="40" y="240" width="40" height="40" as="geometry" />
        </mxCell>
        <mxCell id="02IZ70COz3PG5wxfBX3Y-120" value="DispatchFunc._build_pipeline()" style="text;html=1;strokeColor=none;fillColor=none;align=left;verticalAlign=middle;whiteSpace=wrap;rounded=0;" vertex="1" parent="1">
          <mxGeometry x="90" y="95" width="60" height="30" as="geometry" />
        </mxCell>
        <mxCell id="02IZ70COz3PG5wxfBX3Y-121" value="DispatchDirect()" style="text;html=1;strokeColor=none;fillColor=none;align=left;verticalAlign=middle;whiteSpace=wrap;rounded=0;" vertex="1" parent="1">
          <mxGeometry x="90" y="145" width="60" height="30" as="geometry" />
        </mxCell>
        <mxCell id="02IZ70COz3PG5wxfBX3Y-122" value="DispatchHomogenous()" style="text;html=1;strokeColor=none;fillColor=none;align=left;verticalAlign=middle;whiteSpace=wrap;rounded=0;" vertex="1" parent="1">
          <mxGeometry x="90" y="195" width="60" height="30" as="geometry" />
        </mxCell>
        <mxCell id="02IZ70COz3PG5wxfBX3Y-123" value="DispatchComposite()" style="text;html=1;strokeColor=none;fillColor=none;align=left;verticalAlign=middle;whiteSpace=wrap;rounded=0;" vertex="1" parent="1">
          <mxGeometry x="90" y="245" width="60" height="30" as="geometry" />
        </mxCell>
      </root>
    </mxGraphModel>
  </diagram>
</mxfile>
